<?xml version="1.0" encoding="utf-8"?>
<!-- Generator: Adobe Illustrator 24.1.3, SVG Export Plug-In . SVG Version: 6.00 Build 0)  -->
<svg version="1.0" id="Layer_1" xmlns="http://www.w3.org/2000/svg" xmlns:xlink="http://www.w3.org/1999/xlink" x="0px" y="0px"
	 viewBox="0 0 394 152" enable-background="new 0 0 394 152" xml:space="preserve">
<g>
	<g>
		<path fill="#FEFEFE" d="M197.01,151.91c-64.35,0-128.7-0.03-193.05,0.09c-3.31,0.01-3.96-0.64-3.96-3.94
			C0.14,99.86,0.13,51.65,0.01,3.44C0.01,0.58,0.59,0,3.47,0C132.5,0.09,261.52,0.09,390.54,0c2.88,0,3.47,0.57,3.46,3.44
			c-0.11,48.37-0.11,96.74,0,145.1c0.01,2.87-0.58,3.45-3.46,3.44C326.03,151.88,261.52,151.91,197.01,151.91z"/>
		<path fill="#E42224" d="M148.52,117.64c-1.26-14.02-1.7-28.07-1.26-42.14c0.05-1.6,0.24-3.19,0.3-4.79
			c0.22-6.02,4.04-8.04,9.25-4.77c1.22,0.77,2.12,0.1,3.16-0.13c13.1-2.93,21.47,3.41,22.61,16.81c0.88,10.35-3.38,17.93-11.9,23.41
			c-3.03,1.95-6.41,2.86-10.06,2.77c-1.13-0.03-2.61-0.94-3.35,0.81C153.36,111.27,150.46,113.94,148.52,117.64z"/>
		<path fill="#DF2224" d="M10.83,92.32c0-7.36,0.01-14.72-0.02-22.08c-0.01-2.17-0.14-4.55,3.04-4.14c2.36,0.3,6.22-2.48,6.52,2.74
			c0.07,1.28,0.31,2.35,1.95,1.7c2.76-1.09,4.06,3.33,6.27,1.99c1.75-1.06,2.45-3.67,4.39-4.94c2.99-1.96,5.81-1.44,8.4,0.75
			c3.03,2.57,5.15,5.91,5.9,9.69c1.95,9.9,2.7,19.91,1.3,29.98c-3.44-3.41,0.04-7.25-0.66-10.83c-0.1-0.5-0.13-1.11,0.42-1.48
			c-0.7,0.17-0.4,0.75-0.46,1.16c-0.25,1.76,0.81,4.05-1.7,4.91c-2.07,0.71-4.1,0.51-5.57-1.43c-0.18-0.23-0.25-0.56-0.59-0.65
			c0.2,0.25,0.37,0.52,0.42,0.84c0.31,1.7,0.9,3.5-1.52,4.23c-0.19-5.88-0.19-11.78-1.32-17.57c-0.34-1.73-0.01-4.57-1.88-4.76
			c-1.38-0.14-1.4,2.81-1.77,4.41c-0.89,3.87-1.49,7.81-2.27,11.7c-0.72,3.57-7.09,6.1-10.12,4.04c-1.06-0.72-1.02-1.86-1.06-2.99
			c-0.08-2.7-0.24-5.4-0.33-8.1c-0.04-1.05-0.25-1.9-1.51-1.98C17.09,93.33,14.5,94.31,10.83,92.32z"/>
		<path fill="#35BBEC" d="M339.81,9.65c0.44-0.63,0.83-1.3,1.34-1.87c0.28-0.32,0.76-0.47,1.16-0.69c0.15,0.4,0.54,0.92,0.4,1.17
			c-1.33,2.5,0.73,3.61,2,5.04c7.16,9.71,10.36,20.74,10.98,32.64c-0.05,4.62,0.08,9.23-0.06,13.84c-0.05,0.77-0.23,1.51-0.59,2.2
			c-1.35,1.62-2.17,0.16-3.09-0.56c-9.16-7.16-19.16-12.76-30.39-16.04c-0.29-0.32-0.48-0.71-0.58-1.13
			c-0.03-0.62,0.13-1.21,0.38-1.77c0.14-0.35,0.32-0.69,0.5-1.02c0.26-0.48,0.53-0.95,0.77-1.45c0.13-0.34,0.28-0.66,0.43-0.99
			c0.19-0.52,0.37-1.05,0.54-1.59c0.29-0.97,0.68-1.9,1.17-2.8C329.76,26.29,333.53,17.22,339.81,9.65z"/>
		<path fill="#35BBEC" d="M274.89,12.39c6.52-3.63,13.71-5.32,20.99-6.1c13.88-1.49,27.73-1.31,41.16,3.33
			c-0.38,2.87-2.97,2.45-4.74,2.94c-10.82,2.97-21.33,6.64-30.8,12.8c-0.75,0.49-1.53,0.94-2.29,1.41c-0.35,0.26-0.71,0.5-1.06,0.75
			c-0.16,0.14-0.34,0.27-0.5,0.41c-0.31,0.31-0.64,0.6-0.97,0.89c-1.39,0.94-2.34,2.95-4.57,1.84c-3.06-5.4-9.32-5.62-13.93-8.5
			c-0.4-0.25-0.89-0.34-1.31-0.56c-2.76-1.41-7.41-0.91-8.07-4.12C268.11,14.25,273.58,15.12,274.89,12.39z"/>
		<path fill="#AD1C1F" d="M311.77,104.82c0.08,0.79,0.19,1.57,0.25,2.36c0.1,1.39-0.31,3.64,0.34,3.99
			c1.51,0.82,2.14-1.34,3.28-2.08c2.03-1.32,2.94-0.08,3.55,1.57c0.76,2.08,1.34,4.23,2.06,6.33c0.24,0.71,0.41,1.79,1.37,1.71
			c1.23-0.1,1.06-1.39,1.22-2.22c0.74-3.59-1.63-6.76-1.51-10.28c-0.18-0.79-0.25-1.61-0.63-2.34c-0.09-0.54-0.18-1.09-0.28-1.63
			c-0.24-1-0.45-3,0.91-2.08c3.25,2.19,5.35,0.07,7.83-1.08c0.22,0.2,0.27,0.43,0.15,0.7c0.37,0.66,0.34,1.45,0.64,2.13
			c2.23,6.25,3.18,12.65,2.19,19.26c-0.5,3.36-1.62,6.5-3.91,9.08c-3.23,3.63-7.84,3.88-11.44,0.59c-2.8-2.55-4.47-5.76-5.08-9.5
			c-1.79,0.24-1.79,0.24-1.8,4.39c-0.03,1.43,0.14,2.89-0.75,4.16c-2.25,3.5-5.52,1.45-8.12,1.04c-2.55-0.4-1.3-3.07-1.28-4.84
			c0.12-7.59,0.26-15.18,0.38-22.76c-0.23-0.75-0.38-1.51-0.35-2.31c0.03-0.77-0.1-1.8,0.84-1.92c0.84-0.11,1.19,0.84,1.52,1.56
			c0.56,1.21,0.65,3.09,2.6,2.71c1.68-0.33,1.68-2.03,2.04-3.38c0.34-1.27,0.15-2.99,2.24-2.99c0.98,0.92,0.81,2.13,0.87,3.29
			C311.02,101.84,310.52,103.5,311.77,104.82z"/>
		<path fill="#057EAB" d="M354.4,45.21c-0.71-10.9-3.8-21.04-9.7-30.28c-0.38-0.6-0.6-1.08,0.01-1.62
			c7.86,5.67,13.95,13.05,20.37,20.21c6.45,7.2,10.41,15.51,13.8,24.27c0.34,0.87,0.42,1.85,0.62,2.77
			c-0.19,2.74-1.96,4.12-4.42,4.01c-5.56-0.27-11.12-0.85-16.33-3.04c-1.84-0.77-3.16-2.1-3.82-4.02
			C354.48,53.42,355.44,49.27,354.4,45.21z"/>
		<path fill="#239BC7" d="M321.56,44.33c7.9,1.13,28.11,12.34,32.72,18.15c0.43,0.32,0.73,0.74,0.91,1.25
			c-0.19,4.61,0.2,9.39-3.62,13.01c-3.28-2.69-5.82-6.14-9.37-8.62c-7.18-5.02-15.04-6.46-23.58-5.5c-2.36,0.27-3.65,1.58-4.55,3.54
			c-0.87,0.21-1.56-0.01-2.01-0.83c0.35-0.94,0.7-1.89,1.05-2.83c1.09-6.25,4.07-11.8,6.67-17.48
			C320.23,44.44,320.72,43.94,321.56,44.33z"/>
		<path fill="#DE2325" d="M244.12,109.94c-0.52,0.33-1.04,0.67-1.56,1c-1.33-1.39-2.11-3.29-4.87-2.61
			c-2.59,0.64-4.49-1.03-5.63-3.39c-0.62-1.16-0.55-3.09-2.56-2.82c-1.71,0.23-1.97,1.76-2.27,3.19c-0.33,1.58,0.35,3.58-1.73,4.5
			c-0.81-0.35-1.21-0.97-1.11-1.84c0.09-0.78,0.1-1.56,0.18-2.33c-0.18,0.66,0.01,1.42-0.48,1.99c-1.82,2.13-5.11,1.38-7.95-1.8
			c-1,0.82-0.35,2.47-1.6,3.17c-4.52,4.48-8.21,3.58-10.73-2.62c-0.46-1.99-0.44-3.98-0.1-5.97c1.42-7.03,3.77-8.07,9.92-4.48
			c0.37,0.22,0.34-0.95,0.93-1.09c0.72,0.76,0.69,1.74,0.84,2.67c0.07,0.43,0.27,0.84,0.41,1.26c0.1-0.5,0.28-0.99,0.29-1.49
			c0.03-1.59,0.09-3.19-0.04-4.77c-0.16-1.96-0.45-4.1,2.01-4.67c2.01-0.46,4.53-2.72,6.06,0.93c0.63,1.52,1.9,0.64,2.9,0.42
			c9.93-2.14,13.39,0.03,15.63,9.8c0.24,1.04,0.17,2.27,1.52,2.7c2.01,2.03,1.59,4.44,1.07,6.87
			C245.03,109.13,244.64,109.6,244.12,109.94z"/>
		<path fill="#DC2124" d="M309.81,97.19c-1.5,1.44-0.6,3.3-0.84,4.96c-0.34,2.34-2.08,3.22-4.01,3.28c-1.4,0.04-2.64-0.85-2.76-2.67
			c-0.05-0.88,0.62-2.03-0.64-2.66c-0.14,1.08-0.28,2.16-0.42,3.24c-0.97-2.06-0.37-4.38-1.05-6.46c-0.46-1.42-0.65-3.44-2.53-3.54
			c-1.68-0.09-1.95,1.81-2.5,3.03c-0.57,1.27-0.9,2.64-1.33,3.97c-1.39,0.9-0.55,2.64-1.5,3.78c-1.44,1.71-3.03,2.95-5.36,2.32
			c-2.29-0.62-1.85-2.62-2.02-4.34c-0.1-1.03,1.04-2.13-0.18-3.07c-0.02-5.87-0.1-11.74-0.02-17.61c0.04-3.07,4.06-4.76,7.68-2.79
			c1.65,0.9,2.71,0.76,4.28,0.41c4.18-0.95,7.33,0.52,9.66,4.38c2.16,3.59,3.28,7.55,3.76,11.69
			C310.52,95.86,310.46,96.56,309.81,97.19z"/>
		<path fill="#E12224" d="M214.56,94.83c-0.07,0.79-0.09,1.58-0.21,2.36c-0.07,0.41,0.17,1.39-0.88,0.55
			c-5.12-4.13-6.87-3.66-8.76,2.28c-0.81-0.18-1.46-0.66-1.9-1.31c-3.29-4.79-7.87-3.22-9.45,2.48c-0.62,2.25-0.75,4.68-2.24,6.66
			c-2.04,2.02-4.48,2.64-7.02,1.36c-2.36-1.19-1.36-3.65-1.56-5.62c-0.09-0.95-0.05-1.91-0.2-2.86c-0.21-4.44,1.33-8.46,3.27-12.3
			c3.23-6.43,9.62-10.2,15.82-9.64c5.76,0.52,10.86,5.58,12.75,12.74C214.47,92.58,214.45,93.72,214.56,94.83z"/>
		<path fill="#057EAB" d="M300.28,25.04c9.2-7.05,20.08-10.26,30.98-13.44c1.95-0.57,4.15-0.44,5.77-1.97
			c0.93,0.01,1.85,0.02,2.78,0.02c0.15,0.26,0.49,0.65,0.41,0.76c-5.65,8-9.79,16.89-14.87,25.22c-1.85,1.75-3.85,1.96-6.08,0.72
			c-4.47-2.47-9.34-3.98-14.1-5.78C302.65,29.63,299.97,28.58,300.28,25.04z"/>
		<path fill="#D92124" d="M109.04,107c-2.39-3.37-4.67-6.82-7.4-9.97c-1.99-2.29,1.35-10.67,4.32-11.28
			c0.87-0.18,1.57,0.31,2.12,0.89c1.22,1.27,2.35,2.62,3.57,3.89c0.49,0.52,0.74,1.68,1.75,1.16c0.39-0.2,0.46-1.09,0.61-1.68
			c1.04-4.19,2.17-8.35,4.14-12.22c2.03-3.99,2.85-4.14,6.3-1.37c4.86,3.91,5.03,4.67,2.2,9.92c-2.83,5.25-4.16,11.03-5.91,16.66
			c-0.61,1.97-0.68,4.1-1.82,5.9c-1.68,1.84-3.46,3.14-6.28,2.69C109.79,111.14,109.99,108.71,109.04,107z"/>
		<path fill="#C01F22" d="M182.34,100.73c1.25,0.85,1.09,2.15,1.16,3.41c0.27,4.95,2.05,5.87,6.45,3.37c0.41-0.23,0.8-0.51,1.2-0.76
			c0.79,0.51,0.98,1.35,1.23,2.16c0.21,0.6,0.43,1.19,0.73,1.76c4.06,4.59,6.02,4.28,9.63-1.53c0.39-0.74,0.81-1.48,1.36-2.13
			c0.16-0.13,0.33-0.25,0.5-0.37c1.4,1.63,1.69,4.48,4.98,4c1.83-0.27,3.47-0.32,3.81-2.61c0.07-0.45-0.21-1.48,0.62-1.17
			c0.39,0.14,0.37,1.39,0.53,2.14c0.2,1.23-0.09,2.4-0.46,3.56c-0.18,0.45-0.56,0.81-0.51,1.35c-0.73,4.01-2.45,7.59-5.17,10.61
			c-6.88,7.66-17.4,6.59-22.55-2.29c-1.2-2.06-2.38-4.17-2.47-6.66c-0.38-0.64-0.31-1.41-0.63-2.06c-0.31-1.12-0.77-2.22-0.34-3.41
			c-0.58-3.09-0.57-6.17-0.01-9.26L182.34,100.73z"/>
		<path fill="#26A1CD" d="M274.89,12.39c-0.01,2.6-2.7,1.99-3.86,3.2c-0.59,0.61-2.08,0.45-1.81,1.73c0.17,0.85,1.19,0.89,1.96,1.09
			c5.86,1.53,11.13,4.55,16.72,6.75c2.53,1,5.06,2.27,4.68,5.74c0.51,2.12-1.44,2.98-2.27,4.42c-2.68,2.77-3.75,6.87-7.33,8.91
			c-1.78-0.86-1.99-2.79-2.86-4.24c-5.28-8.85-12.45-14.46-23.36-13.83c-0.46,0.03-1.21,0.16-1.35-0.05
			c-0.44-0.71,0.28-1.09,0.73-1.48C261.8,19.67,267.71,15.06,274.89,12.39z"/>
		<path fill="#0B6588" d="M351.57,76.73c1.56-4.28,2.41-8.72,2.88-13.23c0.68-1.01,0.28-2.15,0.39-3.23
			c0.09-0.86-0.27-1.81,0.52-2.52c3.51,3.4,8.03,4.18,12.6,4.77c1.25,0.16,2.52,0,3.76,0.49c3.21,1.25,5.88,0.59,7.76-2.44l0,0
			c0.45,0.57,0.35,1.34,0.72,1.93c2,6.24,2.92,12.66,3.08,19.19c0.01,0.56,0.36,1.24-0.33,1.67c-0.59,0.36-0.89-0.19-1.17-0.5
			C373.18,73.63,362.79,73.14,351.57,76.73z"/>
		<path fill="#DC2124" d="M244.42,108.69c-0.08-2.34-0.16-4.67-0.23-7.01c-0.14-3.03-0.22-6.06-0.44-9.08
			c-0.14-2.01-0.27-4.09,2.12-4.71c2.06-0.54,4.43-2.64,6.21,0.76c1.04,1.99,2.82,0.76,4.25,0.4c9.04-2.27,13.67,0.78,15.07,10
			c-0.21,0.25-0.44,0.52-0.43,0.8c0.36,6.9-2.02,8.53-8.87,6.08c-1.73-1.97-2.34-6.27-6.55-3.15c-1.12,0.49-1.62,1.48-2.05,2.53
			C251.79,110.25,249.77,111,244.42,108.69z"/>
		<path fill="#C21E22" d="M261.79,104.83c1.11,0.64,2.28,0.92,3.59,0.99c3.15,0.18,5.38-0.48,5-4.31c-0.09-0.95,0.02-1.9,1-2.46
			l0.18,0.23l-0.13,0.26c0.61,3.78,0.57,7.56,0.02,11.34c-1.14,8.7-6.57,13.05-16.49,13.23c-0.6,0.44-1.21,0.88-1.94,1.09
			c-0.31,0.08-0.62,0.16-0.93,0.22c-2,0.4-4.01,1.05-5.89-0.38c-0.16,1.73,0.84,3.71-1.08,5.07c-1.14-6.68-1.32-13.4-1-20.15
			c0.1-0.42,0.2-0.84,0.3-1.26c0.32-0.01,0.64-0.05,0.95-0.01c3.84,0.46,7.09,0.02,7.54-4.8c1.75,1.11,0.67,3.61,2.37,4.73
			c2.05,0.86,3.06-0.76,4.31-1.79c0.41-0.44,0.83-0.89,1.23-1.34C261.08,105.18,261.41,104.97,261.79,104.83z"/>
		<path fill="#D22124" d="M75.41,105.8c-0.64-6.38,0.47-12.72,0.51-19.08c0.02-3.12,3.07-2.03,4.91-2.42
			c2.33-0.5,4.62-0.3,5.16,2.51c0.27,1.4,0.05,2.24,2.04,2.12c2.75-0.18,4.37,1.76,5.28,4.14c0.8,2.08,1.39,4.25,2,6.39
			c1.49,5.24,0.14,7.63-5.03,9.14c-0.8,0.23-1.52,0.39-2.26-0.14c-0.84-0.6-0.38-2.44-1.65-2.2c-0.45,0.08-0.47,2.02-0.86,3.05
			c-0.13,0.34-0.79,0.47-1.21,0.7c-0.92-1.37-2.15-0.54-3.31-0.52C78.31,109.52,76.56,108.08,75.41,105.8z"/>
		<path fill="#C71F23" d="M232.92,104.83c1.58,1.79,3.14,3.82,5.91,2.19c3.24-1.91,3.75-0.26,3.58,2.52
			c-0.03,0.46,0.09,0.94,0.15,1.4c-1.21,8.83-6.47,12.87-17.21,13.21c-2.55,1.36-5.07,1.98-7.32-0.53c-0.09-0.1,0.19-0.61,0.18-0.61
			c-0.89,0.01-0.4,0.58-0.31,0.89c0.49,1.6,0.7,3.12-0.82,4.32c-1.18-7.43-1.21-14.91-0.94-22.4c1.52,0.38,2.44,1.94,4.24,1.9
			c2.08-0.05,3.89-0.06,3.66-2.91c-0.05-0.65-0.32-1.9,0.53-1.83c0.69,0.05,0.31,1.37,0.4,2.12c0.19,1.51-0.51,3.18,0.77,4.51
			C229.04,109.36,230.37,106.19,232.92,104.83z"/>
		<path fill="#A61C1E" d="M51.22,108.56c-0.09-0.31-0.02-0.57,0.22-0.79c2.24,2.75,5.88,3.7,8.22,6.32
			c0.48,0.75,0.34,2.11,1.61,2.09c0.92-0.02,1.1-1,1.3-1.77c0.24-0.93,0.38-1.88,1.05-2.65c2.75-0.77,5.14,0.91,7.76,1.11
			c1.32,0.1,1.63,1.3,1.57,2.5c-0.19,3.26,0.45,6.56-0.38,9.8c0,1.27,0.13,2.56-0.02,3.81c-0.24,1.93,0.41,4.69-2.54,4.89
			c-2.47,0.17-5.66,1.44-7.06-2.06c-0.49-1.24-1.29-1.09-2.22-1.22c-8.29-1.2-11.47-5-11.44-13.47c0.01-2.27,0.42-4.43,1.2-6.54
			C50.87,109.94,50.73,109.14,51.22,108.56z"/>
		<path fill="#DB2123" d="M330.15,99.09c-2.44,4.48-2.42,4.44-8,1.73c-0.5-0.25-0.58,0.88-0.73,1.43
			c-2.05-6.46-2.64-13.06-1.98-19.79c0.24-2.42,0.95-4.7,2.3-6.72c3.42-5.1,10.35-5.78,14.66-1.49c0.76,0.76,0.99,1.65,0.74,2.61
			c-0.72,2.77-1.42,5.55-2.32,8.27c-0.43,1.3-1.4,2.16-2.98,1.3c-3.48-1.91-3.5,0.85-3.33,2.79
			C328.8,92.53,329.58,95.8,330.15,99.09z"/>
		<path fill="#AE1C1F" d="M109.04,107c0.31-0.4,0.89-0.7,0.96-0.08c0.24,1.88,0.56,3.58,2.93,3.64c2.06,0.05,4.36,0.49,4.94-2.48
			c0.12-0.61,0.53-0.63,0.83-0.1c0.15,0.26,0.15,0.62,0.22,0.93c-2.39,9.09-4.78,18.19-7.16,27.28c-0.24,0.93-0.37,1.89-0.67,2.79
			c-0.69,2.07,0.09,5.4-3.45,5.28c-3.38-0.12-6.68-4.04-6.29-7.2C102.62,126.72,105.53,116.78,109.04,107z"/>
		<path fill="#0A5B7B" d="M282.96,44.23c2.03-3.33,3.94-6.75,6.75-9.54c6.43,1.53,12.98,2.66,18.99,5.62
			c3.82,1.88,8.04,2.86,11.78,4.94c-2.36,5.79-4.14,11.82-7.38,17.24C305.6,50.14,301.14,42.33,282.96,44.23z"/>
		<path fill="#C11F22" d="M72.57,125.16c-0.03-2.06-0.03-4.12-0.1-6.18c-0.09-2.75,1.19-6.58-4.27-4.92
			c-1.52,0.46-2.48-2.29-4.43-1.5c-1.71,0.4-2.75,2.15-4.61,2.23c-0.46-1.12-1.54-1.9-2.48-1.86c-3.74,0.14-4.33-2.62-5.25-5.16
			c2.33-5.74,5.67-10.17,12.74-9.83c0.17,0.01,0.36-0.45,0.54-0.7c-0.48-0.92-0.25-2.5,0.6-1.96c3.26,2.06,5.68,0.23,8.3-1.1
			C74.12,104.53,73.69,114.86,72.57,125.16z"/>
		<path fill="#DA2124" d="M73.62,94.18c-2.42,4.46-2.4,4.42-8.08,1.85c-0.74-0.33-0.69,0.69-0.82,1.21
			c-1.95-5.05-2.46-5.22-7.03-2.33c-3.56,2.25-3.86,2.16-5.45-1.67c-3.43-8.27-2.61-9.97,6.07-12.6c6.72-2.03,11.25,0.06,13.87,6.55
			C73.08,89.41,73.78,91.72,73.62,94.18z"/>
		<path fill="#AE1C1F" d="M38.91,104.77c0.87-0.71,0.76-1.7,0.76-2.65c-0.01-1.99-0.8-4.32,2.64-1.57c2.42,1.94,4.73,0.28,5.09-2.86
			c0.1-0.85-0.41-1.87,0.6-2.52c0.11,0.93,0.3,1.86,0.33,2.8c0.11,3.35,0.17,6.69,0.24,10.04c0.05,4.78-1.34,9.4-1.63,14.15
			c-0.04,0.63-0.12,1.28-0.34,1.87c-0.7,1.95,2.01,4.94-1.03,5.86c-2.74,0.83-5.5-1.09-8.09-2.16c-1.63-0.67-1.85-2.52-1.39-4.17
			C37.84,117.41,38.26,111.07,38.91,104.77z"/>
		<path fill="#B61C20" d="M284.67,99.02c1.76,1.06,0.93,2.82,1.15,4.29c0.36,2.46,1.78,3.17,3.87,1.8c1.77-1.16,3.04-2.74,3.03-5.03
			c0-0.08,0.23-0.25,0.27-0.23c0.26,0.14,0.49,0.32,0.73,0.49c-0.68,9.43,1.23,18.76,1.17,28.17c-0.01,2.19-0.1,4.06-2.84,4.75
			c-3.87,0.96-5.4,0.25-6.05-3.67c-0.96-5.82-1.66-11.67-1.29-17.59c-0.53-4.16-0.59-8.32,0.05-12.48l-0.19-0.22L284.67,99.02z"/>
		<path fill="#B41C1F" d="M148.52,117.64c0.07-0.94,0.12-1.89,0.23-2.82c0.3-2.47-1.78-6.97,4.18-4.59
			c1.11,0.44,2.64-1.79,4.34-0.62c0.73,7.76,1.36,15.54,2.24,23.28c0.4,3.44-0.93,4.52-4.22,4.6c-2.9,0.07-5.4,0.56-5.5-3.69
			C149.67,128.4,148.14,123.09,148.52,117.64z"/>
		<path fill="#AE1E21" d="M75.41,105.8c2.52,1.27,4.53,4.36,8.11,1.92c0.53-0.36,0.35,1.53,0.76,2.29c0.9,6.21,1.59,12.46,2.8,18.61
			c0.58,2.98,0.24,4.6-3.03,4.96c-1.09,0.12-2.14,0.62-3.21,0.93c-2.34,0.68-3.36-0.04-3.86-2.61
			C75.32,123.24,74.85,114.56,75.41,105.8z"/>
		<path fill="#D71E21" d="M273.28,109.63c-0.52-7.69,0.67-15.31,1.06-22.96c0.14-2.85,2.2-3,4.46-3.08
			c2.61-0.09,3.41,1.24,3.38,3.51c-0.09,6.87-0.17,13.74-0.26,20.61C277.91,112.06,277.17,112.22,273.28,109.63z"/>
		<path fill="#A91C1E" d="M18.5,106.73c0.53,7.45,1.18,14.9,1.54,22.35c0.17,3.39-1.53,4.17-6.51,3.95
			c-3.09-0.14-3.72-1.66-3.31-4.39c1.06-6.96-0.4-13.98,0.38-20.95C14.45,109.05,14.45,109.05,18.5,106.73z"/>
		<path fill="#B51C1E" d="M273.28,109.63c3.55,2.35,5.77-1.22,8.64-1.92c0.02,6.36-0.04,12.72,0.09,19.08
			c0.08,3.77-2.54,3.85-5.14,4.09c-3.05,0.28-3.78-1.45-3.81-4.11C272.96,121.05,272.4,115.33,273.28,109.63z"/>
		<path fill="#A91C1F" d="M245.12,130.1c0.14-3.03-0.75-6.82,4.71-5.56c0.83,0.19,2.07-0.52,3.18-0.49
			c0.92,0.91,0.94,2.09,0.93,3.26c0.1,1.53-0.32,3.15,0.8,4.49c0.36,2.51,0.78,5.02,1.08,7.54c0.31,2.61-1.02,4-3.58,3.82
			c-2.36-0.17-5.87,1.89-6.37-2.62C245.49,137.08,245.36,133.58,245.12,130.1z"/>
		<path fill="#AD1C1F" d="M217.08,128.23c0.3-4.41,0.3-4.41,4.5-4.2c1.26,0.06,2.51,0.08,3.77,0.12c0.41,4.75,0.59,9.51,1.43,14.22
			c0.46,2.57,0.12,4.71-3.41,4.92c-2.98,0.17-5.53,0.3-5.71-3.65C217.5,135.84,217.28,132.04,217.08,128.23z"/>
		<path fill="#CA1C20" d="M18.5,106.73c-1.52,1.15-0.66,4.36-4.22,4.01c-2.39-0.24-2.33-2.23-3.67-3.06
			c0.07-5.12,0.14-10.25,0.22-15.37c2.85-0.26,6.06,0.44,7.82-2.81C18.6,95.25,18.55,100.99,18.5,106.73z"/>
		<path fill="#E62123" d="M284.04,73.31c-0.01,3.7-1.92,6.67-4.51,7.01c-2.51,0.33-5.39-2.14-6.21-5.6
			c-0.75-3.2-0.74-6.37,1.97-8.82c1.29-1.16,2.84-1.42,4.42-0.53C282.8,67.12,284.07,69.87,284.04,73.31z"/>
		<path fill="#135269" d="M188.32,45.32c0.88-1.36-1.64-4.68,1.5-4.76c3.09-0.08,1.29,3.14,1.56,4.89c0.22,1.4,0.07,2.86,0.06,4.29
			c-0.03,2.47-1.3,3.86-3.77,4.04c-2.59,0.19-4.51-0.87-4.78-3.55c-0.28-2.68-0.11-5.41-0.12-8.12c-0.01-1.14,0.52-1.78,1.72-1.75
			c1.21,0.02,1.65,0.72,1.66,1.83c0,2.55-0.03,5.1,0.05,7.65c0.02,0.68-0.01,1.75,1.2,1.55c0.72-0.12,0.91-0.82,0.92-1.46
			C188.34,48.49,188.32,47.06,188.32,45.32z"/>
		<path fill="#0F4F67" d="M78.43,46.76c0-0.32,0-0.64,0-0.95c0-5.69,0.96-6.43,6.63-5.45c2.12,0.37,3.08,1.58,3.19,3.52
			c0.11,2.08-0.57,4.17-2.93,4.12c-3.03-0.06-3.98,1.05-3.64,3.87c0.1,0.88-0.66,1.36-1.57,1.39c-1.19,0.04-1.72-0.55-1.7-1.73
			C78.45,49.94,78.43,48.35,78.43,46.76z"/>
		<path fill="#AB2F32" d="M6.1,46.74c0-0.95,0.01-1.91,0-2.86c-0.02-1.92-0.37-3.97,2.71-3.8c2.7,0.15,5.73-0.39,6.64,3.15
			c0.58,2.27-0.26,4.4-2.73,4.74c-2.15,0.3-3.25,0.79-2.92,3.13c0.16,1.12,0.08,2.31-1.58,2.33c-1.64,0.02-2.24-0.81-2.13-2.4
			C6.17,49.61,6.1,48.18,6.1,46.74z"/>
		<path fill="#296378" d="M218.41,48.16c0.01-4.52,1.97-6.02,6.34-4.87c1.25,0.33,1.94,1.15,2.01,2.34c0.12,2.06,0.09,4.13,0.1,6.19
			c0,1.22-0.79,1.64-1.87,1.61c-0.93-0.03-1.47-0.64-1.51-1.51c-0.06-1.43-0.01-2.86,0.03-4.29c0.02-0.66-0.03-1.42-0.73-1.5
			c-0.81-0.09-0.89,0.73-0.91,1.36c-0.02,1.11-0.03,2.22,0,3.33c0.05,1.37-0.02,2.66-1.88,2.57c-1.53-0.07-1.65-1.17-1.6-2.38
			C218.44,50.07,218.41,49.12,218.41,48.16z"/>
		<path fill="#0C4D65" d="M133.95,48.33c0.05-3.91,1.19-5.18,4.57-5.06c3.61,0.13,4.5,1.13,4.49,5.09c0,4.02-1.18,5.34-4.82,5.42
			C135.14,53.85,133.9,52.26,133.95,48.33z"/>
		<path fill="#0B4C64" d="M113.96,46.7c0,0.79,0,1.59,0,2.38c-0.02,4.23-0.46,4.65-4.82,4.61c-3.26-0.03-3.5-2.64-3.36-4.69
			c0.17-2.45-0.83-6.43,4.16-5.55c1.36,0.24,1.05-0.8,1.04-1.48c-0.03-1.23,0.55-1.69,1.72-1.63c1.45,0.08,1.25,1.15,1.27,2.06
			c0.03,1.43,0.01,2.86,0.01,4.29C113.97,46.7,113.97,46.7,113.96,46.7z"/>
		<path fill="#AD3538" d="M54.53,48.05c0.89-1.16-1.73-4.33,2.35-4.57c5.02-0.29,8.05,4.22,5.86,8.92c-0.3,0.65-0.84,0.9-1.54,0.88
			c-0.69-0.02-1.28-0.27-1.44-0.96c-0.14-0.61-0.03-1.28-0.15-1.91c-0.28-1.46,0.83-4.21-0.83-4.13c-1.9,0.09-0.63,2.82-0.98,4.36
			c-0.04,0.15-0.01,0.32,0,0.48c0.11,1.27-0.17,2.31-1.71,2.25c-1.22-0.05-1.53-0.97-1.55-2.01C54.52,50.4,54.53,49.44,54.53,48.05z
			"/>
		<path fill="#084A63" d="M159.43,40.32c2.61,0.17,1.83,1.78,2.03,2.89c0.15,0.84-0.74,2.04,0.39,2.46c0.85,0.32,1.15-0.82,1.6-1.45
			c0.65-0.91,1.78-1.16,2.55-0.66c1.26,0.82-0.02,1.65-0.51,2.16c-1.92,1.98-0.11,3.4,0.52,5.06c0.27,0.71,1.65,1.56,0.33,2.36
			c-0.85,0.52-2.01,0.25-2.5-0.7c-1.36-2.62-2.1-3.04-2.85,0.35c-0.16,0.74-2.36,0.97-2.47-0.59c-0.25-3.65-0.11-7.33-0.03-10.99
			C158.51,40.51,159.26,40.3,159.43,40.32z"/>
		<path fill="#074962" d="M124.53,46.53c0-1.44,0-2.88,0-4.32c0-1.04,0.16-1.88,1.53-1.86c1.34,0.02,1.54,0.82,1.5,1.88
			c-0.02,0.64-0.04,1.28-0.03,1.92c0.01,0.48-0.1,1.25,0.13,1.38c0.67,0.36,1.2-0.2,1.47-0.75c0.72-1.43,2.12-1.99,3.1-1.05
			c1.03,0.98-0.65,1.81-1.2,2.61c-1.3,1.88,0.56,2.88,0.94,4.29c0.22,0.81,1.64,1.56,0.61,2.39c-0.97,0.78-2.45,0.4-2.89-0.67
			c-1.5-3.58-1.9-2.21-2.42,0.36c-0.12,0.59-1.01,0.63-1.67,0.5c-0.77-0.16-0.97-0.74-0.98-1.39c-0.02-1.76-0.01-3.52-0.01-5.28
			C124.59,46.53,124.56,46.53,124.53,46.53z"/>
		<path fill="#19576D" d="M255.18,49.4c-0.45,1.16,0.92,3.61-0.62,3.66c-2.28,0.08-4.66,1.44-6.89,0.19
			c-1.76-0.99-1.77-3.63-0.06-4.88c0.75-0.55,1.73-0.79,2.63-1.13c0.65-0.25,1.24-0.64,0.87-1.34c-0.4-0.76-1.05-0.31-1.6,0.01
			c-0.88,0.52-2.27,0.85-2.49-0.13c-0.3-1.32,0.85-2.18,2.3-2.49C253.35,42.43,255.16,44.24,255.18,49.4z"/>
		<path fill="#115168" d="M201.65,45.12c-1.03,2.06-2.2,0.8-3.47,0.26c-0.56-0.24-1.7-0.52-1.93,0.56c-0.16,0.72,0.6,1,1.25,1.15
			c0.62,0.14,1.27,0.21,1.83,0.47c1.34,0.62,2.62,1.36,2.39,3.16c-0.23,1.87-1.48,2.77-3.21,3.02c-1.26,0.18-2.56,0.27-3.76-0.37
			c-1.05-0.56-2.08-1.31-1.35-2.58c0.7-1.2,1.67-0.37,2.36,0.23c0.49,0.43,0.91,0.92,1.62,0.78c0.44-0.09,1.1-0.2,1.24-0.5
			c0.35-0.72-0.23-0.91-0.86-1.23c-1.85-0.92-4.63-0.85-4.63-3.96c0-1.3,0.65-2.27,1.77-2.55c2.52-0.63,5.05-0.77,6.86,1.68
			L201.65,45.12z"/>
		<path fill="#135269" d="M228.05,47.3c0.09-1.71,0.72-4.03,4.24-4.04c3.1,0,4.34,1.6,4.2,5.56c-0.12,3.45-1.59,5.1-4.45,4.96
			C229.29,53.66,227.97,51.89,228.05,47.3z"/>
		<path fill="#A92B2E" d="M72.21,49.58c-0.41,1.05,0.93,3-0.57,3.3c-1.91,0.39-3.99,1.38-5.97,0.5c-1.97-0.87-1.98-3.88-0.05-5.14
			c0.92-0.6,2.07-0.85,3.09-1.3c0.51-0.23,0.57-0.75,0.32-1.17c-0.12-0.2-0.56-0.31-0.84-0.28c-1.17,0.13-2.54,2.08-3.4-0.13
			c-0.36-0.93,0.85-1.82,1.77-1.9c1.81-0.17,3.95-0.98,5.14,1.3C72.49,46.25,72.16,47.9,72.21,49.58z"/>
		<path fill="#0D4E66" d="M96.57,49.12c0.13-4.84,2.46-6.82,5.72-5.72c1.87,0.63,2.09,2.13,2.16,3.8c0.11,2.45-1.77,1.63-3,1.88
			c-0.72,0.15-1.7-0.15-1.8,0.98c-0.04,0.43,0.1,1.02,0.39,1.3c0.91,0.88,1.24-0.12,1.79-0.62c0.74-0.66,1.78-1.15,2.37,0.01
			c0.49,0.97-0.28,1.79-1.14,2.34c-1.47,0.94-2.97,0.98-4.51,0.14C96.5,52.11,96.52,50.2,96.57,49.12z"/>
		<path fill="#0D4E66" d="M175.79,49.25c-0.6,1.31,1.61,4.28-2.52,3.97c-1.93-0.15-4.18,1.42-5.11-1.52
			c-0.88-2.81,1.23-3.56,3.26-4.27c0.75-0.26,1.78-0.54,1.37-1.51c-0.42-1-1.25-0.47-1.94,0.01c-0.87,0.61-2.24,0.73-2.46-0.17
			c-0.24-1,0.79-1.97,1.98-2.36C174.17,42.12,175.8,43.83,175.79,49.25z"/>
		<path fill="#A62426" d="M46.58,49.25c0.49,2.55,0.01,4.18-3.76,4.21c-2.07,0.01-3.46,0.11-4.01-1.91
			c-0.56-2.06,0.58-3.21,2.57-3.82c0.78-0.24,2.39-0.38,2.03-1.51c-0.64-2-1.62,0-2.47,0.1c-0.63,0.07-1.47,0.21-1.73-0.43
			c-0.32-0.8,0.37-1.5,0.94-1.95c1.4-1.08,3.09-0.78,4.6-0.44c1.74,0.39,1.81,1.98,1.82,3.46C46.58,47.59,46.58,48.22,46.58,49.25z"
			/>
		<path fill="#0C4D65" d="M216.63,49.51c-0.37,1.07,0.91,2.85-0.36,3.39c-1.64,0.69-3.65,0.72-5.49,0.66
			c-1.25-0.04-1.66-1.42-1.94-2.47c-0.32-1.2,0.32-2.21,1.32-2.82c0.8-0.49,1.76-0.73,2.64-1.09c0.65-0.26,1.09-0.71,0.7-1.41
			c-0.27-0.48-0.78-0.3-1.23-0.11c-0.95,0.41-2.29,1.48-2.69-0.15c-0.36-1.45,1.08-2.03,2.49-2.23
			C215.81,42.76,216.6,43.78,216.63,49.51z"/>
		<path fill="#115168" d="M153.78,43.27c0.36,0.1,1.15,0.22,1.86,0.53c0.59,0.26,1.05,0.88,0.94,1.54
			c-0.19,1.11-1.07,0.94-1.82,0.69c-0.7-0.24-1.69-1.17-2.04-0.34c-0.49,1.17,0.88,1.37,1.73,1.69c2.43,0.9,3.36,2.68,2,4.84
			c-1.27,2.03-3.43,2-5.54,1.04c-0.99-0.45-1.65-1.25-1.23-2.25c0.53-1.27,1.45-0.78,2.28-0.13c0.57,0.44,1.25,1.46,1.93,0.48
			c0.96-1.38-0.73-1.55-1.33-1.82c-1.86-0.84-3.57-1.67-2.97-4.13C150.04,43.43,151.67,43.27,153.78,43.27z"/>
		<path fill="#125168" d="M121.21,46.25c-1.22-0.76-2.34-1.31-2.55-0.49c-0.27,1.08,1.1,1.3,1.97,1.64c2.32,0.92,3.43,2.56,1.97,4.8
			c-1.32,2.01-3.43,2.01-5.53,1.06c-1.01-0.46-1.6-1.29-1.16-2.27c0.6-1.31,1.46-0.66,2.25,0c0.55,0.46,1.24,1.39,1.91,0.32
			c0.64-1.02-0.52-1.26-1.11-1.64c-0.66-0.42-1.45-0.66-2.11-1.09c-1.28-0.83-1.34-2.11-0.99-3.39c0.47-1.7,1.91-1.96,3.41-2
			c1.32-0.03,2.61,0.16,3.29,1.47c0.17,0.32,0.09,1.03-0.15,1.26C121.93,46.37,121.25,46.28,121.21,46.25z"/>
		<path fill="#A92B2E" d="M29.95,45.8c-0.06-1.24-0.18-2.12,0.88-2.31c1.09-0.2,1.88,0.25,2.06,1.41c0.1,0.63,0.01,1.28,0.1,1.9
			c0.08,0.55-0.16,1.42,0.56,1.53c0.78,0.12,0.94-0.71,1.04-1.33c0.13-0.78,0.16-1.58,0.27-2.37c0.13-0.99,0.8-1.26,1.7-1.18
			c1.09,0.1,1.28,0.85,1.08,1.68c-0.57,2.31-1.26,4.59-1.82,6.9c-0.31,1.26-1.25,1.24-2.2,1.31c-1.14,0.09-1.85-0.51-2.13-1.52
			C30.9,49.68,30.39,47.52,29.95,45.8z"/>
		<path fill="#135269" d="M245.28,45.34c-0.53,1.99-1.14,4.13-1.65,6.3c-0.32,1.36-1.13,1.72-2.43,1.69
			c-1.18-0.03-1.72-0.6-1.98-1.64c-0.54-2.16-1.14-4.31-1.65-6.48c-0.19-0.79-0.16-1.63,0.95-1.76c0.84-0.1,1.64,0.03,1.84,1.03
			c0.15,0.78,0.12,1.59,0.27,2.37c0.13,0.68-0.22,1.83,0.99,1.73c0.69-0.06,0.59-0.98,0.65-1.56c0.09-0.79,0.07-1.59,0.19-2.38
			c0.15-0.97,0.88-1.24,1.75-1.2C245.38,43.5,245.26,44.37,245.28,45.34z"/>
		<path fill="#0E4E66" d="M201.75,45.23c0.43-0.65,0.76-1.4,1.31-1.93c0.94-0.92,0.29-3.98,2.67-2.64c1.17,0.66,2.52,2.76,1.57,4.64
			c-0.94,1.87-0.85,3.72-0.38,5.54c0.29,1.15,1.73,2.38-0.57,2.75c-1.7,0.27-2.7-0.67-2.72-2.48c-0.01-1.43,0.04-2.87-0.07-4.3
			c-0.08-1.07-0.79-1.67-1.91-1.71L201.75,45.23z"/>
		<path fill="#A8282B" d="M50.93,40.38c1.48,1.13,2.39,2.96,1.8,4.86c-0.65,2.08-0.89,4.01-0.13,6c0.35,0.92,0.95,1.83-0.35,2.33
			c-0.93,0.35-1.93,0.06-2.65-0.68c-0.87-0.89-1.17-10.44-0.54-11.6C49.43,40.62,49.88,40.41,50.93,40.38z"/>
		<path fill="#B34345" d="M16.77,48.09c0.75-1.34-1.52-4.65,2.42-4.56c1.18,0.03,2.9-0.93,3.58,0.32c0.8,1.46-0.71,1.94-1.85,2.66
			c-1.13,0.72-0.51,2.35-0.64,3.59c-0.14,1.29,0.69,3.25-1.59,3.3c-2.59,0.06-1.77-2.08-1.91-3.53
			C16.73,49.4,16.77,48.92,16.77,48.09z"/>
		<path fill="#203C58" d="M312.05,65.33c0.75,0.09,1.51,0.15,2.01,0.83c-1.21,4.34-5.06,7.24-6.36,11.55
			c-0.14,0.46-0.68,1.21-1.46,0.61c-0.48-0.37-1.15-0.81-0.72-1.56C307.72,72.96,308.33,68.26,312.05,65.33z"/>
		<path fill="#16556C" d="M89.97,48.2c0-4.93-0.01-4.89,4.15-4.68c0.63,0.03,1.36-0.25,1.52,0.51c0.11,0.53-0.1,1.58-0.4,1.68
			c-2.5,0.79-2.11,2.78-2.18,4.66c-0.04,1.14,0.55,2.82-1.45,2.87c-2.4,0.05-1.47-1.89-1.63-3.13C89.9,49.47,89.97,48.83,89.97,48.2
			z"/>
		<path fill="#074962" d="M147.76,46.7c0,1.6,0,3.19,0,4.79c0,1.09-0.34,1.83-1.63,1.74c-1.01-0.07-1.34-0.68-1.35-1.56
			c-0.02-3.19-0.03-6.38-0.04-9.58c0-1.11,0.39-1.8,1.68-1.73c1.39,0.09,1.35,1.07,1.36,2.02c0.02,1.44,0,2.87,0,4.31
			C147.77,46.7,147.76,46.7,147.76,46.7z"/>
		<path fill="#A72628" d="M24.07,48.41c0.88-1.59-1.16-4.59,1.55-4.72c2.85-0.13,1.56,2.95,1.52,4.48c-0.04,1.68,1.66,4.9-1.53,4.87
			C22.84,53.02,25.03,49.92,24.07,48.41z"/>
		<path fill="#C9756B" d="M310.17,125.14c-0.04-1.38-0.12-2.75-0.12-4.13c0-0.83,0.35-1.53,1.31-1.52c1.22,0.01,1.51,0.8,1.34,1.86
			c-1.36,0.92-0.56,2.4-0.92,3.58C311.31,125.55,310.77,125.55,310.17,125.14z"/>
		<path fill="#DE7C72" d="M309.81,97.19c0.07-0.69,0.15-1.38,0.22-2.08c2.86,1.34,1.66,3.82,1.69,5.96
			c-0.67,0.45-1.26,0.51-1.67-0.34C309.97,99.55,309.89,98.37,309.81,97.19z"/>
		<path fill="#DC2124" d="M284.77,99.52c-0.02,4.16-0.03,8.32-0.05,12.48C283.97,107.83,283.95,103.67,284.77,99.52z"/>
		<path fill="#1D5A70" d="M119.41,40.32c0.85-0.25,2.16-1.74,2.21,0.49c0.02,1.15-1.15,1.78-2.43,1.7
			c-1.26-0.07-2.41-0.72-2.19-1.94C117.35,38.52,118.56,40.24,119.41,40.32z"/>
		<path fill="#DC2124" d="M271.46,110.88c-0.01-3.78-0.02-7.56-0.02-11.34C272.48,103.32,273.14,107.1,271.46,110.88z"/>
		<path fill="#E3B9AF" d="M310.17,125.14c0.54-0.07,1.08-0.14,1.61-0.21c-0.33,1.73,1.35,4.11-1.63,4.97
			C309.77,128.31,309.98,126.72,310.17,125.14z"/>
		<path fill="#E12224" d="M182.41,100.85c0,3.09,0.01,6.17,0.01,9.26C181.41,107.02,181.36,103.93,182.41,100.85z"/>
		<path fill="#B24144" d="M25.85,39.69c0.7-0.08,1.25,0.37,1.4,1.27c0.17,1-0.38,1.42-1.32,1.43c-0.83,0.01-1.6-0.13-1.67-1.16
			C24.19,40.31,24.65,39.77,25.85,39.69z"/>
		<path fill="#DC2124" d="M310.05,100.73c0.56,0.11,1.11,0.22,1.67,0.34c0.01,1.25,0.03,2.5,0.04,3.75
			C309.03,104.36,310.17,102.29,310.05,100.73z"/>
		<path fill="#E3B1A4" d="M253.17,127.73c-0.05-1.23-0.11-2.46-0.16-3.69c0.65,0.02,1.31,0.04,1.96,0.06
			c-0.06,1.29-0.11,2.58-0.17,3.86C254.18,128.43,253.62,128.45,253.17,127.73z"/>
		<path fill="#C7665A" d="M253.17,127.73c0.54,0.08,1.08,0.16,1.63,0.24c-0.02,1.28-0.04,2.55-0.05,3.83
			C252.14,131.25,253.25,129.26,253.17,127.73z"/>
		<path fill="#057EAB" d="M380.21,62.5c-0.74-0.46-0.81-1.17-0.72-1.93C380.12,61.07,380.34,61.72,380.21,62.5z"/>
		<path fill="#DB2123" d="M330.94,101.92c-0.75-0.55-0.76-1.32-0.64-2.13C330.83,100.4,331.06,101.1,330.94,101.92z"/>
		<path fill="#E12224" d="M182.76,113.51c0.72,0.53,0.73,1.28,0.63,2.06C182.85,114.99,182.64,114.3,182.76,113.51z"/>
		<path fill="#DB2123" d="M321.69,103.88c0.86,0.61,0.79,1.46,0.63,2.34C321.68,105.55,321.57,104.75,321.69,103.88z"/>
		<path fill="#C11F22" d="M51.22,108.56c0.06,0.78,0.01,1.52-0.73,2.01C50.32,109.75,50.61,109.09,51.22,108.56z"/>
		<path fill="#E12224" d="M213.58,113.91c0.17-0.45,0.34-0.9,0.51-1.35C214.19,113.12,214.02,113.56,213.58,113.91z"/>
		<path fill="#FEFCFB" d="M158.34,86.39c-0.01-6.07,2.09-8.62,7.49-9.1c1.92-0.17,3.43,0.42,4.37,2.24
			c2.48,4.81-1.33,13.01-6.73,14.42c-3.65,0.95-5.04-0.04-5.13-3.72C158.31,88.94,158.34,87.67,158.34,86.39z"/>
		<path fill="#0A6C91" d="M320.48,45.26c-4.8,0.59-8.52-2.39-12.56-4.04c-3.56-1.45-7.14-2.91-10.87-3.45
			c-2.86-0.41-5.12-1.54-7.35-3.08c0.95-1.26,1.91-2.53,2.86-3.79c1.29-1,2.58-1.99,3.87-2.99c0.3-0.29,0.62-0.57,0.94-0.83
			l0.11-0.11c0.23-0.31,0.51-0.57,0.84-0.78c0.65-0.39,1.3-0.77,1.95-1.16c1.16,2.66,3.39,4,6.03,4.76c4.75,1.37,9.4,3.04,13.62,5.6
			c1.91,1.16,3.6,0.64,5.42,0.22c-0.33,0.94-0.66,1.88-0.99,2.82c-0.28,0.35-0.55,0.7-0.81,1.07c-0.05,0.3-0.08,0.6-0.11,0.9
			c-0.32,0.3-0.59,0.65-0.79,1.04c-0.07,0.3-0.12,0.61-0.15,0.91c-0.35,0.27-0.6,0.61-0.77,1.02c-0.08,0.31-0.14,0.62-0.17,0.93
			C321.2,44.64,320.84,44.95,320.48,45.26z"/>
		<path fill="#239BC7" d="M355.37,57.75c-0.04,0.95-0.07,1.9-0.11,2.85c-0.29,0.45-0.59,0.46-0.91,0.03
			c0.02-5.14,0.03-10.28,0.05-15.42C356.38,49.26,354.76,53.59,355.37,57.75z"/>
		<path fill="#057EAB" d="M354.35,60.63c0.3-0.01,0.6-0.02,0.91-0.03c0.04,1.06,0.27,2.16-0.81,2.91c-0.06-0.34-0.11-0.68-0.17-1.03
			C354.3,61.86,354.33,61.25,354.35,60.63z"/>
		<path fill="#239BC7" d="M321.73,43.39c-0.02-0.54,0.29-0.84,0.77-1.02C322.24,42.72,321.99,43.06,321.73,43.39z"/>
		<path fill="#239BC7" d="M323.55,39.52c0.02-0.55,0.34-0.86,0.81-1.07C324.09,38.81,323.82,39.16,323.55,39.52z"/>
		<path fill="#239BC7" d="M322.65,41.46c0-0.54,0.32-0.85,0.79-1.04C323.18,40.77,322.91,41.12,322.65,41.46z"/>
		<path fill="#057EAB" d="M297.39,27.08c-0.31,0.28-0.63,0.55-0.94,0.83C296.76,27.64,297.07,27.36,297.39,27.08z"/>
		<path fill="#057EAB" d="M298.34,26.2c-0.28,0.26-0.56,0.52-0.84,0.78C297.59,26.51,297.84,26.23,298.34,26.2z"/>
		<path fill="#FEFCFC" d="M203.95,108.64c-0.19,0.43-0.38,0.86-0.58,1.29c-1.14,2.47-2.36,5.03-5.53,5.18
			c-3.13,0.15-4.75-2.07-6-4.57c-0.17-0.41-0.35-0.81-0.53-1.21c-0.06-0.86-0.12-1.72-0.18-2.58c0.26-2.82,0.7-5.61,1.97-8.19
			c1.06-2.16,2.3-4.45,5.03-4.36c2.61,0.09,4.74,1.47,5.73,4.12c0.22,0.58,0.55,1.12,0.83,1.68c-0.04,2.21-0.07,4.42-0.11,6.62
			c0,0,0.03-0.01,0.03-0.01C204.2,107.23,204.29,108.01,203.95,108.64z"/>
		<path fill="#FEFCFB" d="M232.92,104.83c-0.73,1.74-1.58,3.39-3.1,4.6c-1.31,1.04-2.62,1.83-4.06,0.2
			c-0.02-1.41-0.05-2.83-0.05-4.24c-0.02-3.32,1.55-5.32,4.43-5.37C233.82,99.96,232.54,102.91,232.92,104.83z"/>
		<path fill="#E12224" d="M203.95,108.64c-0.08-0.77,0.04-1.48,0.68-2.01C204.75,107.41,204.7,108.15,203.95,108.64z"/>
		<path fill="#E12224" d="M191.33,109.33c0.18,0.4,0.35,0.81,0.53,1.21C191.68,110.13,191.5,109.73,191.33,109.33z"/>
		<path fill="#FDFCFB" d="M261.79,104.83c-0.2,0.26-0.24,0.55-0.14,0.86c-0.28,0.29-0.47,0.63-0.58,1.01
			c-1.73,1.73-2.66,5.12-6.25,3c-1.21-2.6-1.35-5.19,0.11-7.76c0.25-0.18,0.49-0.4,0.76-0.54
			C260.55,98.83,261.53,99.38,261.79,104.83z"/>
		<path fill="#E38070" d="M254.93,101.94c-0.04,2.59-0.07,5.17-0.11,7.76c-3.31-1.07-1.04-3.96-1.91-5.82
			C252.97,102.6,253.5,101.8,254.93,101.94z"/>
		<path fill="#DC2124" d="M261.07,106.7c0.19-0.34,0.39-0.67,0.58-1.01C261.45,106.02,261.26,106.36,261.07,106.7z"/>
		<path fill="#F6E6E2" d="M59.17,114.79c1.4-1.03,1.67-4.36,4.61-2.23c-0.07,0.95-0.16,1.89-0.21,2.84
			c-0.1,1.78-0.78,3.28-2.77,3.08C58.42,118.25,59.05,116.32,59.17,114.79z"/>
		<path fill="#F5F7F8" d="M82.73,42.61c0.82,0.29,1.4,0.77,1.36,1.71c-0.04,0.91-0.54,1.51-1.46,1.48
			c-0.79-0.02-0.96-0.77-1.01-1.39C81.55,43.58,81.77,42.84,82.73,42.61z"/>
		<path fill="#EED6D6" d="M12.39,44.37c-0.4,0.83-0.79,1.62-1.72,1.54c-1.16-0.1-0.91-1.13-0.91-1.85c0-0.77,0.12-1.72,1.3-1.39
			C11.9,42.91,12.24,43.64,12.39,44.37z"/>
		<path fill="#F1F4F6" d="M139.12,48.81c-0.17,1.05,0.29,2.89-1.06,2.66c-1.69-0.29-1.04-2.29-1.02-3.57
			c0.01-0.91-0.51-2.76,1.21-2.37C139.76,45.87,138.86,47.7,139.12,48.81z"/>
		<path fill="#CAD8DD" d="M111.12,48.66c-0.01,1.1,0.11,2.69-1.29,2.57c-1.49-0.13-1.4-1.83-1.4-3.08c0-1.13,0.17-2.69,1.39-2.58
			C111.44,45.7,111.04,47.45,111.12,48.66z"/>
		<path fill="#B2C7CE" d="M250.39,51.61c-0.67-0.16-1.23-0.56-1.16-1.24c0.09-0.86,0.72-1.35,1.63-1.3
			c0.49,0.03,0.92,0.24,0.87,0.83C251.65,50.73,251.17,51.29,250.39,51.61z"/>
		<path fill="#C8D7DC" d="M230.98,48.38c0.17-1.15-0.23-3,1.46-2.9c1.66,0.1,1.13,1.95,1.16,3.11c0.03,1.18,0.33,3.02-1.34,2.94
			C230.76,51.45,231.06,49.62,230.98,48.38z"/>
		<path fill="#E6C2C3" d="M69.49,50.14c-0.28,0.66-0.59,1.42-1.49,1.32c-0.67-0.08-1-0.66-0.85-1.33c0.15-0.63,0.65-1.02,1.3-1.08
			C69.18,48.98,69.54,49.37,69.49,50.14z"/>
		<path fill="#D6E1E5" d="M100.54,45.21c0.88,0.17,1.25,0.71,1.19,1.35c-0.03,0.25-0.69,0.57-1.09,0.6
			c-0.73,0.06-1.24-0.36-0.97-1.12C99.79,45.67,100.28,45.44,100.54,45.21z"/>
		<path fill="#CFDBE0" d="M171.97,51.57c-0.86-0.15-1.03-0.72-0.98-1.35c0.05-0.69,0.49-1.13,1.2-1.12
			c0.84,0.01,0.96,0.63,0.81,1.26C172.87,50.92,172.72,51.6,171.97,51.57z"/>
		<path fill="#EBCFCF" d="M43.73,50.26c-0.2,0.56-0.3,1.23-1.07,1.27c-0.82,0.05-1.03-0.6-1.02-1.19c0.01-0.63,0.41-1.13,1.13-1.21
			C43.61,49.05,43.73,49.61,43.73,50.26z"/>
		<path fill="#A9C0C8" d="M213.13,48.99c0.81,0.02,1.22,0.53,0.99,1.2c-0.19,0.55-0.69,1.21-1.19,1.36
			c-0.56,0.17-1.24-0.3-1.26-1.06C211.64,49.55,212.25,49.11,213.13,48.99z"/>
	</g>
</g>
</svg>
